<svg width="70" height="73" viewBox="0 0 330 333" fill="none" xmlns="http://www.w3.org/2000/svg">
<mask id="mask0_134_8" style="mask-type:alpha" maskUnits="userSpaceOnUse" x="0" y="0" width="330" height="333">
<path d="M165 0C120.223 0 114.593 0.208125 96.9994 0.999C79.4063 1.8315 67.4231 4.62037 56.925 8.74125C45.9132 12.9208 35.9389 19.4769 27.6994 27.9512C19.3066 36.2699 12.8103 46.3336 8.6625 57.4425C4.57875 68.0153 1.79438 80.1281 0.99 97.8187C0.20625 115.613 0 121.274 0 166.521C0 211.726 0.20625 217.387 0.99 235.14C1.815 252.872 4.57875 264.964 8.6625 275.557C12.8906 286.505 18.5213 295.787 27.6994 305.049C36.8569 314.31 46.0556 320.013 56.9044 324.259C67.4231 328.38 79.3856 331.189 96.9581 332.001C114.572 332.792 120.182 333 165 333C209.818 333 215.408 332.792 233.021 332.001C250.573 331.168 262.598 328.38 273.096 324.259C284.1 320.077 294.067 313.521 302.301 305.049C311.479 295.787 317.109 286.505 321.337 275.557C325.401 264.964 328.185 252.872 329.01 235.14C329.794 217.387 330 211.726 330 166.5C330 121.274 329.794 115.613 329.01 97.8396C328.185 80.1281 325.401 68.0153 321.337 57.4425C317.19 46.3333 310.694 36.2694 302.301 27.9512C294.064 19.4738 284.089 12.9172 273.075 8.74125C262.556 4.62037 250.552 1.81069 233.001 0.999C215.387 0.208125 209.798 0 164.959 0H165.021H165ZM150.212 30.0116H165.021C209.076 30.0116 214.294 30.1573 231.681 30.969C247.768 31.6974 256.513 34.4239 262.329 36.6924C270.022 39.7103 275.529 43.3316 281.304 49.1591C287.079 54.9866 290.648 60.5228 293.638 68.3066C295.907 74.1549 298.588 82.9794 299.31 99.2132C300.114 116.758 300.279 122.024 300.279 166.458C300.279 210.893 300.114 216.179 299.31 233.724C298.588 249.958 295.886 258.762 293.638 264.631C290.993 271.86 286.771 278.397 281.284 283.758C275.509 289.585 270.023 293.186 262.309 296.204C256.534 298.493 247.789 301.199 231.681 301.948C214.294 302.739 209.076 302.926 165.021 302.926C120.966 302.926 115.727 302.739 98.34 301.948C82.2525 301.199 73.5281 298.493 67.7119 296.204C60.5447 293.538 54.0607 289.285 48.7369 283.758C43.2455 278.389 39.0168 271.846 36.3619 264.61C34.1138 258.762 31.4119 249.937 30.69 233.704C29.9063 216.159 29.7413 210.893 29.7413 166.417C29.7413 121.961 29.9063 116.716 30.69 99.1716C31.4325 82.9378 34.1138 74.1133 36.3825 68.2442C39.3731 60.4811 42.9619 54.9242 48.7369 49.0967C54.5119 43.2692 59.9981 39.6686 67.7119 36.6508C73.5281 34.3614 82.2525 31.6558 98.34 30.9066C113.561 30.1989 119.46 29.9908 150.212 29.97V30.0116ZM253.089 57.6506C250.489 57.6506 247.914 58.1674 245.512 59.1715C243.11 60.1756 240.927 61.6473 239.089 63.5026C237.25 65.3579 235.792 67.5605 234.797 69.9846C233.802 72.4087 233.289 75.0068 233.289 77.6306C233.289 80.2544 233.802 82.8526 234.797 85.2766C235.792 87.7007 237.25 89.9033 239.089 91.7586C240.927 93.6139 243.11 95.0856 245.512 96.0897C247.914 97.0938 250.489 97.6106 253.089 97.6106C258.341 97.6106 263.377 95.5056 267.09 91.7586C270.803 88.0116 272.889 82.9297 272.889 77.6306C272.889 72.3316 270.803 67.2496 267.09 63.5026C263.377 59.7557 258.341 57.6506 253.089 57.6506ZM165.021 81.0022C153.781 80.8253 142.62 82.9063 132.185 87.1241C121.751 91.3418 112.252 97.6121 104.242 105.57C96.2318 113.528 89.8706 123.014 85.5286 133.476C81.1866 143.938 78.9504 155.168 78.9504 166.51C78.9504 177.853 81.1866 189.083 85.5286 199.545C89.8706 210.007 96.2318 219.493 104.242 227.451C112.252 235.409 121.751 241.679 132.185 245.897C142.62 250.115 153.781 252.196 165.021 252.019C187.266 251.668 208.482 242.505 224.09 226.508C239.698 210.51 248.447 188.96 248.447 166.51C248.447 144.061 239.698 122.511 224.09 106.513C208.482 90.5154 187.266 81.3525 165.021 81.0022ZM165.021 110.993C179.609 110.993 193.601 116.841 203.916 127.251C214.232 137.66 220.028 151.779 220.028 166.5C220.028 181.221 214.232 195.34 203.916 205.749C193.601 216.159 179.609 222.007 165.021 222.007C150.432 222.007 136.441 216.159 126.125 205.749C115.809 195.34 110.014 181.221 110.014 166.5C110.014 151.779 115.809 137.66 126.125 127.251C136.441 116.841 150.432 110.993 165.021 110.993Z" fill="#0FA958"/>
</mask>
<g mask="url(#mask0_134_8)">
<rect x="-229" y="-289" width="788" height="750" fill="url(#paint0_linear_134_8)"/>
</g>
<defs>
<linearGradient id="paint0_linear_134_8" x1="165" y1="-289" x2="165" y2="461" gradientUnits="userSpaceOnUse">
<stop offset="0.140625" stop-color="#D1AB35" stop-opacity="0.63"/>
<stop offset="0.401042" stop-color="#D1AB35" stop-opacity="0.63"/>
<stop offset="0.75" stop-color="#936A2C"/>
</linearGradient>
</defs>
</svg>
