<svg width="150" height="150" viewBox="0 0 640 386" fill="none" xmlns="http://www.w3.org/2000/svg">
<mask id="mask0_67_38" style="mask-type:alpha" maskUnits="userSpaceOnUse" x="0" y="0" width="640" height="386">
<path d="M272.2 0.599998L221.1 51.7C205.8 55.9 191.6 63.6 179.6 74.2L153 97.9C142.8 107 129.5 112 115.8 112H96V240C116.4 240.6 135.8 248.9 150.3 263.4L185.9 299L192.9 306L219.9 333C226.1 339.2 236.3 339.2 242.5 333C244.2 331.3 245.5 329.3 246.2 327.2C249 319.5 255.5 313.7 263.5 311.9C271.5 310.1 279.9 312.5 285.7 318.4L296.5 329C308.1 340.6 326.9 340.6 338.4 329C343.8 323.6 346.7 316.7 347 309.6C347.4 300.8 352.6 293 360.6 289.2C368.6 285.4 377.9 286.2 385 291.3C394.4 298 407.5 297.1 415.9 288.7C425.3 279.3 425.3 264.1 415.9 254.8L340.1 179L304.3 212C277 237.2 235.1 237.6 207.3 212.9C175.6 184.7 174.9 135.5 205.7 106.4L275.8 40.2C303.2 14.4 339.4 0 377.1 0C413.2 0 448.1 13.3 475 37.2L505.1 64H544H584H624C632.8 64 640 71.2 640 80V288C640 305.7 625.7 320 608 320H576C564.2 320 553.8 313.6 548.3 304H463.4C460 310.7 455.5 317.1 449.9 322.7C432.8 339.8 409.1 346.5 386.9 342.8C383.3 350.1 378.4 356.9 372.3 363C345 390.3 302.3 393 271.9 371.1C246.8 391.9 209.4 390.6 185.9 367L159 340L152 333L116.4 297.4C110.9 291.9 103.7 288.7 96 288.1C96 305.7 81.6 320 64 320H32C14.3 320 0 305.7 0 288V80C0 71.2 7.2 64 16 64H56H96H115.8C117.8 64 119.7 63.3 121.1 62L147.6 38.4C175.5 13.7 211.4 0 248.7 0H259C263.4 0 267.9 0.199998 272.2 0.599998ZM544 256V112H496C490.1 112 484.4 109.8 480.1 105.9L443.2 73.1C425 56.9 401.5 48 377.1 48C351.7 48 327.3 57.7 308.8 75.1L238.7 141.3C228.4 151.1 228.6 167.6 239.2 177C248.5 185.3 262.6 185.1 271.7 176.7L343.6 110.3C353.3 101.3 368.5 101.9 377.5 111.7C386.5 121.5 385.9 136.6 376.1 145.6L375.3 146.4L449.7 220.8C459.7 230.8 466.2 243.1 469.1 255.9H544V256ZM64 272C64 267.757 62.3143 263.687 59.3137 260.686C56.3131 257.686 52.2435 256 48 256C43.7565 256 39.6869 257.686 36.6863 260.686C33.6857 263.687 32 267.757 32 272C32 276.243 33.6857 280.313 36.6863 283.314C39.6869 286.314 43.7565 288 48 288C52.2435 288 56.3131 286.314 59.3137 283.314C62.3143 280.313 64 276.243 64 272ZM592 288C596.243 288 600.313 286.314 603.314 283.314C606.314 280.313 608 276.243 608 272C608 267.757 606.314 263.687 603.314 260.686C600.313 257.686 596.243 256 592 256C587.757 256 583.687 257.686 580.686 260.686C577.686 263.687 576 267.757 576 272C576 276.243 577.686 280.313 580.686 283.314C583.687 286.314 587.757 288 592 288Z" fill="black"/>
</mask>
<g mask="url(#mask0_67_38)">
<rect x="-263" y="-323" width="1049" height="998" fill="url(#paint0_linear_67_38)"/>
</g>
<defs>
<linearGradient id="paint0_linear_67_38" x1="261.5" y1="-323" x2="261.5" y2="675" gradientUnits="userSpaceOnUse">
<stop offset="0.140625" stop-color="#D1AB35" stop-opacity="0.63"/>
<stop offset="0.401042" stop-color="#D1AB35" stop-opacity="0.63"/>
<stop offset="0.75" stop-color="#936A2C"/>
</linearGradient>
</defs>
</svg>
