<svg width="150" height="150" viewBox="0 0 629 501" fill="none" xmlns="http://www.w3.org/2000/svg">
<mask id="mask0_67_36" style="mask-type:alpha" maskUnits="userSpaceOnUse" x="0" y="0" width="629" height="501">
<path d="M304.834 127.3C311.934 121 314.734 111.1 311.034 102.3C308.734 97 306.234 91.8 303.434 86.8L300.334 81.4C297.334 76.4 294.034 71.5 290.534 66.8C284.834 59.2 274.834 56.7 265.834 59.7L237.634 69C226.934 60.2 214.634 53 201.434 48.1L195.334 19.1C193.434 9.8 186.234 2.4 176.834 1.3C170.234 0.4 163.534 0 156.734 0H156.034C149.234 0 142.534 0.4 135.934 1.2C126.534 2.3 119.334 9.8 117.434 19L111.334 48.1C98.0344 53.1 85.8344 60.2 75.1344 69L46.8344 59.8C37.8344 56.8 27.8344 59.3 22.1344 66.9C18.6344 71.6 15.3344 76.5 12.2344 81.5L9.2344 86.8C6.4344 91.8 3.9344 97 1.6344 102.4C-2.0656 111.1 0.7344 121 7.8344 127.4L30.0344 147.2C28.9344 153.9 28.3344 160.9 28.3344 168C28.3344 175.1 28.9344 182.1 30.0344 188.9L7.8344 208.7C0.7344 215 -2.0656 224.9 1.6344 233.7C3.9344 239 6.4344 244.2 9.2344 249.3L12.2344 254.5C15.2344 259.6 18.5344 264.4 22.1344 269.1C27.8344 276.7 37.8344 279.2 46.8344 276.2L75.0344 266.9C85.7344 275.7 98.0344 282.9 111.234 287.8L117.334 316.9C119.234 326.2 126.434 333.6 135.834 334.7C142.534 335.5 149.334 335.9 156.234 335.9C163.134 335.9 169.934 335.5 176.634 334.7C186.034 333.6 193.234 326.1 195.134 316.9L201.234 287.8C214.534 282.8 226.734 275.7 237.434 266.9L265.634 276.2C274.634 279.2 284.634 276.7 290.334 269.1C293.834 264.4 297.134 259.6 300.134 254.5L303.234 249.1C306.034 244.1 308.534 238.9 310.834 233.6C314.534 224.9 311.734 215 304.634 208.6L282.434 188.8C283.534 182 284.134 175 284.134 167.9C284.134 160.8 283.534 153.8 282.434 147L304.634 127.2L304.834 127.3ZM108.334 168C108.334 155.27 113.392 143.061 122.393 134.059C131.395 125.057 143.604 120 156.334 120C169.065 120 181.274 125.057 190.276 134.059C199.277 143.061 204.334 155.27 204.334 168C204.334 180.73 199.277 192.939 190.276 201.941C181.274 210.943 169.065 216 156.334 216C143.604 216 131.395 210.943 122.393 201.941C113.392 192.939 108.334 180.73 108.334 168ZM501.034 492.5C507.334 499.6 517.234 502.4 526.034 498.7C531.334 496.4 536.534 493.9 541.534 491.1L546.934 488C551.934 485 556.834 481.7 561.534 478.2C569.134 472.5 571.634 462.5 568.634 453.5L559.334 425.3C568.134 414.6 575.334 402.3 580.234 389.1L609.334 383C618.634 381.1 626.034 373.9 627.134 364.5C627.934 357.8 628.334 351 628.334 344.1C628.334 337.2 627.934 330.4 627.134 323.7C626.034 314.3 618.534 307.1 609.334 305.2L580.234 299C575.234 285.7 568.134 273.5 559.334 262.8L568.634 234.6C571.634 225.6 569.134 215.6 561.534 209.9C556.834 206.4 551.934 203.1 546.934 200L541.634 197C536.634 194.2 531.434 191.7 526.034 189.4C517.334 185.7 507.434 188.5 501.034 195.6L481.234 217.8C474.434 216.7 467.434 216.1 460.334 216.1C453.234 216.1 446.234 216.7 439.434 217.8L419.634 195.6C413.334 188.5 403.434 185.7 394.634 189.4C389.334 191.7 384.134 194.2 379.034 197L373.834 200C368.734 203 363.934 206.3 359.234 209.9C351.634 215.6 349.134 225.6 352.134 234.6L361.434 262.8C352.634 273.5 345.434 285.8 340.534 299L311.434 305C302.134 306.9 294.734 314.1 293.634 323.5C292.834 330.2 292.434 337 292.434 343.9C292.434 350.8 292.834 357.6 293.634 364.3C294.734 373.7 302.234 380.9 311.434 382.8L340.534 388.9C345.534 402.2 352.634 414.4 361.434 425.1L352.134 453.3C349.134 462.3 351.634 472.3 359.234 478C363.934 481.5 368.734 484.8 373.834 487.8L379.234 490.9C384.234 493.7 389.434 496.2 394.734 498.5C403.434 502.2 413.334 499.4 419.734 492.3L439.534 470.1C446.334 471.2 453.334 471.8 460.434 471.8C467.534 471.8 474.534 471.2 481.334 470.1L501.134 492.3L501.034 492.5ZM460.334 296C466.638 296 472.88 297.242 478.703 299.654C484.527 302.066 489.818 305.602 494.276 310.059C498.733 314.516 502.268 319.808 504.681 325.631C507.093 331.455 508.334 337.697 508.334 344C508.334 350.303 507.093 356.545 504.681 362.369C502.268 368.192 498.733 373.484 494.276 377.941C489.818 382.398 484.527 385.934 478.703 388.346C472.88 390.758 466.638 392 460.334 392C454.031 392 447.789 390.758 441.966 388.346C436.142 385.934 430.85 382.398 426.393 377.941C421.936 373.484 418.4 368.192 415.988 362.369C413.576 356.545 412.334 350.303 412.334 344C412.334 337.697 413.576 331.455 415.988 325.631C418.4 319.808 421.936 314.516 426.393 310.059C430.85 305.602 436.142 302.066 441.966 299.654C447.789 297.242 454.031 296 460.334 296Z" fill="black"/>
</mask>
<g mask="url(#mask0_67_36)">
<rect x="-218" y="-188" width="1049" height="998" fill="url(#paint0_linear_67_36)"/>
</g>
<defs>
<linearGradient id="paint0_linear_67_36" x1="306.5" y1="-188" x2="306.5" y2="810" gradientUnits="userSpaceOnUse">
<stop offset="0.140625" stop-color="#D1AB35" stop-opacity="0.63"/>
<stop offset="0.401042" stop-color="#D1AB35" stop-opacity="0.63"/>
<stop offset="0.75" stop-color="#936A2C"/>
</linearGradient>
</defs>
</svg>
