<svg width="150" height="150" viewBox="0 0 452 474" fill="none" xmlns="http://www.w3.org/2000/svg">
<mask id="mask0_123_11" style="mask-type:alpha" maskUnits="userSpaceOnUse" x="0" y="0" width="452" height="474">
<path d="M290.579 242.925L265.189 269.588L290.579 296.25L256.726 331.8L378.035 459.188C394.962 476.963 420.353 476.963 437.28 459.188C454.207 441.412 454.207 414.75 437.28 396.975L290.579 242.925ZM400.605 444.375C389.32 444.375 378.035 435.487 378.035 420.675C378.035 408.825 386.499 396.975 400.605 396.975C414.71 396.975 423.174 405.862 423.174 420.675C423.174 435.487 414.71 444.375 400.605 444.375ZM101.562 237L126.952 219.225L169.27 168.862L194.66 195.525L220.05 168.862L217.229 165.9C222.872 151.087 225.693 136.275 225.693 118.5C225.693 53.325 174.912 0 112.846 0C95.9194 0 81.8136 2.9625 67.7078 8.8875L149.521 94.8L90.2771 157.013L8.46348 71.1C2.82116 85.9125 0 100.725 0 118.5C0 180.712 45.1386 228.112 101.562 237Z" fill="#0FA958"/>
<path d="M225.692 319.95L251.083 296.25L225.692 269.588L386.498 100.725L420.352 88.8754L451.385 23.7004L431.637 2.96289L366.75 32.5879L352.645 68.1379L194.66 237L169.269 210.338L146.7 237C146.7 237 169.269 254.775 143.879 281.438C129.773 296.25 107.204 278.475 64.8862 322.913L5.6419 385.125C5.6419 385.125 -11.2851 414.75 22.5689 450.3C56.4228 485.85 84.6344 468.075 84.6344 468.075L143.879 405.863C183.375 364.388 169.269 337.725 180.554 325.875C205.944 299.213 225.692 319.95 225.692 319.95ZM138.236 308.1L157.985 328.838L50.7804 441.413L31.0323 420.675L138.236 308.1Z" fill="#0FA958"/>
</mask>
<g mask="url(#mask0_123_11)">
<rect x="-187.076" y="-213.48" width="900.197" height="902.771" fill="url(#paint0_linear_123_11)"/>
</g>
<defs>
<linearGradient id="paint0_linear_123_11" x1="263.022" y1="-213.48" x2="263.022" y2="689.291" gradientUnits="userSpaceOnUse">
<stop offset="0.140625" stop-color="#D1AB35" stop-opacity="0.63"/>
<stop offset="0.401042" stop-color="#D1AB35" stop-opacity="0.63"/>
<stop offset="0.75" stop-color="#936A2C"/>
</linearGradient>
</defs>
</svg>
